<!-- Placeholder image for singapore-sun-path.gif -->
<!-- This is a placeholder. You'll need to replace this with an actual animated GIF file. -->
<svg xmlns="http://www.w3.org/2000/svg" width="800" height="500" viewBox="0 0 800 500">
  <rect width="800" height="500" fill="#f8f9fa" />
  
  <!-- Sky gradient -->
  <defs>
    <linearGradient id="skyGradient" x1="0%" y1="0%" x2="0%" y2="100%">
      <stop offset="0%" style="stop-color:#87CEEB;stop-opacity:1" />
      <stop offset="100%" style="stop-color:#f8f9fa;stop-opacity:1" />
    </linearGradient>
  </defs>
  <rect width="800" height="300" fill="url(#skyGradient)" />
  
  <!-- Horizon -->
  <line x1="0" y1="300" x2="800" y2="300" stroke="#333" stroke-width="2" />
  
  <!-- Building silhouette -->
  <rect x="320" y="200" width="160" height="100" fill="#555" />
  <rect x="350" y="150" width="100" height="50" fill="#555" />
  
  <!-- Compass directions -->
  <text x="400" y="320" font-family="Arial" font-size="16" text-anchor="middle" fill="#333">Observer</text>
  <text x="400" y="350" font-family="Arial" font-size="14" text-anchor="middle" fill="#333">N</text>
  <text x="480" y="350" font-family="Arial" font-size="14" text-anchor="middle" fill="#333">E</text>
  <text x="400" y="430" font-family="Arial" font-size="14" text-anchor="middle" fill="#333">S</text>
  <text x="320" y="350" font-family="Arial" font-size="14" text-anchor="middle" fill="#333">W</text>
  
  <!-- Sun path arcs -->
  <path d="M 150,300 Q 400,100 650,300" stroke="#f39c12" stroke-width="3" fill="none" stroke-dasharray="5,5" />
  <path d="M 220,300 Q 400,170 580,300" stroke="#e74c3c" stroke-width="3" fill="none" />
  <path d="M 280,300 Q 400,220 520,300" stroke="#3498db" stroke-width="3" fill="none" stroke-dasharray="5,5" />
  
  <!-- Sun positions -->
  <circle cx="220" cy="220" r="20" fill="#f39c12" />
  <circle cx="400" cy="170" r="25" fill="#e74c3c" />
  <circle cx="580" cy="220" r="20" fill="#f39c12" />
  
  <!-- Legend -->
  <text x="650" y="80" font-family="Arial" font-size="16" fill="#333">Sun Path</text>
  <line x1="570" y1="100" x2="620" y2="100" stroke="#f39c12" stroke-width="3" stroke-dasharray="5,5" />
  <text x="650" y="105" font-family="Arial" font-size="14" fill="#333">December</text>
  <line x1="570" y1="130" x2="620" y2="130" stroke="#e74c3c" stroke-width="3" />
  <text x="650" y="135" font-family="Arial" font-size="14" fill="#333">March/September</text>
  <line x1="570" y1="160" x2="620" y2="160" stroke="#3498db" stroke-width="3" stroke-dasharray="5,5" />
  <text x="650" y="165" font-family="Arial" font-size="14" fill="#333">June</text>
  
  <!-- Title -->
  <text x="400" y="40" font-family="Arial" font-size="24" text-anchor="middle" fill="#333">Singapore Sun Path Throughout the Year</text>
  <text x="400" y="70" font-family="Arial" font-size="16" text-anchor="middle" fill="#333">Sun direction varies by up to 48° between seasons</text>
</svg>
